<svg xmlns="http://www.w3.org/2000/svg" width="32.215" height="38.842" viewBox="0 0 32.215 38.842">
  <path id="Subtraction_15" data-name="Subtraction 15" d="M-2963.264-2988.53h0l-11.421-11.42a15.9,15.9,0,0,1-4.686-11.314,15.9,15.9,0,0,1,4.686-11.314l.108-.107a15.9,15.9,0,0,1,11.314-4.687,15.893,15.893,0,0,1,11.313,4.687l.108.107a15.9,15.9,0,0,1,4.687,11.314,15.9,15.9,0,0,1-4.687,11.314l-11.42,11.42Zm0-29.811a5.043,5.043,0,0,0-3.59,1.487,5.082,5.082,0,0,0,0,7.178,5.043,5.043,0,0,0,3.59,1.487,5.043,5.043,0,0,0,3.589-1.487,5.082,5.082,0,0,0,0-7.178A5.043,5.043,0,0,0-2963.265-3018.341Z" transform="translate(2979.372 3027.373)" fill="#fff"/>
</svg>
