<svg xmlns="http://www.w3.org/2000/svg" width="41.105" height="28.464" viewBox="0 0 41.105 28.464">
  <g id="Group_428" data-name="Group 428" transform="translate(-327.947 -20.268)">
    <path id="_Color" data-name=" ↳Color" d="M18.5,25A19.888,19.888,0,0,1,0,12.5,19.889,19.889,0,0,1,18.5,0,19.888,19.888,0,0,1,37,12.5a19.758,19.758,0,0,1-7.187,8.994A19.855,19.855,0,0,1,18.5,25Zm0-20.833A8.334,8.334,0,1,0,26.91,12.5,8.38,8.38,0,0,0,18.5,4.167Zm0,13.333a5,5,0,1,1,5.047-5A5.029,5.029,0,0,1,18.5,17.5Z" transform="translate(331 23)" fill="#d4d6d7"/>
    <rect id="Rectangle_204" data-name="Rectangle 204" width="4" height="44" transform="translate(366.052 20.268) rotate(60)" fill="#fff"/>
    <rect id="Rectangle_205" data-name="Rectangle 205" width="4" height="44" transform="translate(367.052 23.268) rotate(60)" fill="#d4d6d7"/>
  </g>
</svg>
