<svg xmlns="http://www.w3.org/2000/svg" xmlns:xlink="http://www.w3.org/1999/xlink" width="220" height="335" viewBox="0 0 220 335">
  <defs>
    <linearGradient id="linear-gradient" x1="0.5" x2="0.5" y2="1" gradientUnits="objectBoundingBox">
      <stop offset="0" stop-color="#fff"/>
      <stop offset="1" stop-color="#4c5b77" stop-opacity="0.361"/>
    </linearGradient>
    <linearGradient id="linear-gradient-2" x1="0.5" x2="0.5" y2="1" gradientUnits="objectBoundingBox">
      <stop offset="0" stop-color="#fff"/>
      <stop offset="1" stop-color="#4c5b77"/>
    </linearGradient>
  </defs>
  <g id="Horizontal" transform="translate(-7523 -643)">
    <g id="Ellipse_246" data-name="Ellipse 246" transform="translate(7534 952)" fill="#fff" stroke="#4c5b77" stroke-width="2">
      <circle cx="13" cy="13" r="13" stroke="none"/>
      <circle cx="13" cy="13" r="12" fill="none"/>
    </g>
    <g id="Ellipse_249" data-name="Ellipse 249" transform="translate(7704 952)" fill="#fff" stroke="#4c5b77" stroke-width="2">
      <circle cx="13" cy="13" r="13" stroke="none"/>
      <circle cx="13" cy="13" r="12" fill="none"/>
    </g>
    <g id="Rectangle_427" data-name="Rectangle 427" transform="translate(7523 681)" fill="#fff" stroke="#4c5b77" stroke-width="2">
      <rect width="220" height="279" rx="7" stroke="none"/>
      <rect x="1" y="1" width="218" height="277" rx="6" fill="none"/>
    </g>
    <g id="Subtraction_17" data-name="Subtraction 17" transform="translate(7532 643)" fill="#fff">
      <path d="M 139.0004119873047 53.0009880065918 L 64.00003051757812 53.0000114440918 L 64.00000762939453 48.99960327148438 C 64.00000762939453 47.89686965942383 63.10285186767578 46.99971008300781 62.00009155273438 46.99971008300781 L 26.0001163482666 46.99971008300781 C 24.89737892150879 46.99971008300781 24.00022125244141 47.89686965942383 24.00022125244141 48.99960327148438 L 24.00022125244141 53 L 9.999931335449219 53 C 5.065850734710693 53 1.046396017074585 49.00886535644531 1.000436663627625 44.08544158935547 L 6.985116004943848 10.17368412017822 L 7.000326633453369 10.08744716644287 L 7.000326633453369 9.999894142150879 C 7.000326633453369 7.600236415863037 7.937642097473145 5.341341972351074 9.639642715454102 3.639341831207275 C 11.34164237976074 1.937341809272766 13.60053730010986 0.9999997019767761 16.00022125244141 0.9999997019767761 L 187.0002136230469 0.9999997019767761 C 191.9627685546875 0.9999997019767761 196.0000915527344 5.037341594696045 196.0000915527344 9.999894142150879 L 196.0000915527344 10.08744716644287 L 196.0153045654297 10.17368412017822 L 202.0000305175781 44.0854377746582 C 201.9540405273438 49.00886154174805 197.9341888427734 53 192.9996185302734 53 L 179.0002136230469 53 L 179.0001983642578 48.99960327148438 C 179.0001983642578 47.89686965942383 178.1030426025391 46.99971008300781 177.0003051757812 46.99971008300781 L 141.0003051757812 46.99971008300781 C 139.8975677490234 46.99971008300781 139.0004119873047 47.89686965942383 139.0004119873047 48.99960327148438 L 139.0004119873047 53.0009880065918 Z" stroke="none"/>
      <path d="M 138.0003814697266 52.00097274780273 L 138.0003814697266 48.99961090087891 C 138.0003814697266 47.34544372558594 139.3461303710938 45.99969482421875 141.0003051757812 45.99969482421875 L 177.0003051757812 45.99969482421875 C 178.6544494628906 45.99969482421875 180.0001983642578 47.34544372558594 180.0001983642578 48.99961090087891 L 180.0002136230469 52 L 192.9996032714844 52 C 197.3560485839844 52 200.9104309082031 48.50082778930664 200.9987487792969 44.16560363769531 L 195.0000762939453 10.17502784729004 L 195.0000762939453 9.99988842010498 C 195.0000762939453 5.588721752166748 191.4113616943359 1.999999761581421 187.0002136230469 1.999999761581421 L 16.00022125244141 1.999999761581421 C 13.86763763427734 1.999999761581421 11.85986042022705 2.833333015441895 10.3467493057251 4.346444129943848 C 8.833638191223145 5.859582901000977 8.000332832336426 7.867332935333252 8.000332832336426 9.99988842010498 L 8.000332832336426 10.17500019073486 L 2.001714944839478 44.16561889648438 C 2.089969396591187 48.50083923339844 5.643942356109619 52 9.999916076660156 52 L 23.00022125244141 52 L 23.00022125244141 48.99961090087891 C 23.00022125244141 47.34544372558594 24.34597206115723 45.99969482421875 26.00013732910156 45.99969482421875 L 62.0001106262207 45.99969482421875 C 63.65424728393555 45.99969482421875 65 47.34544372558594 65 48.99961090087891 L 65.00001525878906 52.00002670288086 L 138.0003814697266 52.00097274780273 M 140.0003814697266 54.00099945068359 L 63.00002670288086 54 L 63 48.99961090087891 C 63 48.44824981689453 62.55144500732422 47.99969482421875 62.0001106262207 47.99969482421875 L 26.00013732910156 47.99969482421875 C 25.44877624511719 47.99969482421875 25.00022125244141 48.44824981689453 25.00022125244141 48.99961090087891 L 25.00022125244141 54 L 9.999916076660156 54 C 4.48594331741333 54 2.680799661902711e-05 49.51408386230469 2.680799661902711e-05 44.0001106262207 L 6.000332355499268 9.99988842010498 C 6.000304698944092 4.486027717590332 10.48624897003174 -2.746581913015689e-07 16.00022125244141 -2.746581913015689e-07 L 187.0002136230469 -2.746581913015689e-07 C 192.51416015625 -2.746581913015689e-07 197.0000762939453 4.485916614532471 197.0000762939453 9.99988842010498 L 203.0004425048828 44.0001106262207 C 203.0003814697266 49.51413726806641 198.5140228271484 54 192.9996032714844 54 L 178.0002136230469 54 L 178.0001983642578 48.99961090087891 C 178.0001983642578 48.44824981689453 177.5516662597656 47.99969482421875 177.0003051757812 47.99969482421875 L 141.0003051757812 47.99969482421875 C 140.4489440917969 47.99969482421875 140.0003814697266 48.44824981689453 140.0003814697266 48.99961090087891 L 140.0003814697266 54.00099945068359 Z" stroke="none" fill="#4c5b77"/>
    </g>
    <g id="Subtraction_16" data-name="Subtraction 16" transform="translate(7532 643)" fill="url(#linear-gradient)">
      <path d="M 139.0004119873047 53.0009880065918 L 64.00003051757812 53.0000114440918 L 64.00000762939453 48.99960327148438 C 64.00000762939453 47.89686965942383 63.10285186767578 46.99971008300781 62.00009155273438 46.99971008300781 L 26.0001163482666 46.99971008300781 C 24.89737892150879 46.99971008300781 24.00022125244141 47.89686965942383 24.00022125244141 48.99960327148438 L 24.00022125244141 53 L 9.999931335449219 53 C 5.065850734710693 53 1.046396017074585 49.00886535644531 1.000436663627625 44.08544158935547 L 6.985116004943848 10.17368412017822 L 7.000326633453369 10.08744716644287 L 7.000326633453369 9.999894142150879 C 7.000326633453369 7.600236415863037 7.937642097473145 5.341341972351074 9.639642715454102 3.639341831207275 C 11.34164237976074 1.937341809272766 13.60053730010986 0.9999997019767761 16.00022125244141 0.9999997019767761 L 187.0002136230469 0.9999997019767761 C 191.9627685546875 0.9999997019767761 196.0000915527344 5.037341594696045 196.0000915527344 9.999894142150879 L 196.0000915527344 10.08744716644287 L 196.0153045654297 10.17368412017822 L 202.0000305175781 44.0854377746582 C 201.9540405273438 49.00886154174805 197.9341888427734 53 192.9996185302734 53 L 179.0002136230469 53 L 179.0001983642578 48.99960327148438 C 179.0001983642578 47.89686965942383 178.1030426025391 46.99971008300781 177.0003051757812 46.99971008300781 L 141.0003051757812 46.99971008300781 C 139.8975677490234 46.99971008300781 139.0004119873047 47.89686965942383 139.0004119873047 48.99960327148438 L 139.0004119873047 53.0009880065918 Z" stroke="none"/>
      <path d="M 138.0003814697266 52.00097274780273 L 138.0003814697266 48.99961090087891 C 138.0003814697266 47.34544372558594 139.3461303710938 45.99969482421875 141.0003051757812 45.99969482421875 L 177.0003051757812 45.99969482421875 C 178.6544494628906 45.99969482421875 180.0001983642578 47.34544372558594 180.0001983642578 48.99961090087891 L 180.0002136230469 52 L 192.9996032714844 52 C 197.3560485839844 52 200.9104309082031 48.50082778930664 200.9987487792969 44.16560363769531 L 195.0000762939453 10.17502784729004 L 195.0000762939453 9.99988842010498 C 195.0000762939453 5.588721752166748 191.4113616943359 1.999999761581421 187.0002136230469 1.999999761581421 L 16.00022125244141 1.999999761581421 C 13.86763763427734 1.999999761581421 11.85986042022705 2.833333015441895 10.3467493057251 4.346444129943848 C 8.833638191223145 5.859582901000977 8.000332832336426 7.867332935333252 8.000332832336426 9.99988842010498 L 8.000332832336426 10.17500019073486 L 2.001714944839478 44.16561889648438 C 2.089969396591187 48.50083923339844 5.643942356109619 52 9.999916076660156 52 L 23.00022125244141 52 L 23.00022125244141 48.99961090087891 C 23.00022125244141 47.34544372558594 24.34597206115723 45.99969482421875 26.00013732910156 45.99969482421875 L 62.0001106262207 45.99969482421875 C 63.65424728393555 45.99969482421875 65 47.34544372558594 65 48.99961090087891 L 65.00001525878906 52.00002670288086 L 138.0003814697266 52.00097274780273 M 140.0003814697266 54.00099945068359 L 63.00002670288086 54 L 63 48.99961090087891 C 63 48.44824981689453 62.55144500732422 47.99969482421875 62.0001106262207 47.99969482421875 L 26.00013732910156 47.99969482421875 C 25.44877624511719 47.99969482421875 25.00022125244141 48.44824981689453 25.00022125244141 48.99961090087891 L 25.00022125244141 54 L 9.999916076660156 54 C 4.48594331741333 54 2.680799661902711e-05 49.51408386230469 2.680799661902711e-05 44.0001106262207 L 6.000332355499268 9.99988842010498 C 6.000304698944092 4.486027717590332 10.48624897003174 -2.746581913015689e-07 16.00022125244141 -2.746581913015689e-07 L 187.0002136230469 -2.746581913015689e-07 C 192.51416015625 -2.746581913015689e-07 197.0000762939453 4.485916614532471 197.0000762939453 9.99988842010498 L 203.0004425048828 44.0001106262207 C 203.0003814697266 49.51413726806641 198.5140228271484 54 192.9996032714844 54 L 178.0002136230469 54 L 178.0001983642578 48.99961090087891 C 178.0001983642578 48.44824981689453 177.5516662597656 47.99969482421875 177.0003051757812 47.99969482421875 L 141.0003051757812 47.99969482421875 C 140.4489440917969 47.99969482421875 140.0003814697266 48.44824981689453 140.0003814697266 48.99961090087891 L 140.0003814697266 54.00099945068359 Z" stroke="none" fill="#4c5b77"/>
    </g>
    <g id="Path_395" data-name="Path 395" transform="translate(7557 670)" fill="#fff">
      <path d="M 36.98019790649414 11 L 1.019804000854492 11 L 2.98058009147644 1.196120023727417 L 3 1.099020004272461 L 3 1 L 35 1 L 35 1.099020004272461 L 35.0194206237793 1.196120023727417 L 36.98019790649414 11 Z" stroke="none"/>
      <path d="M 3.839607238769531 2 L 2.239604949951172 10 L 35.76039505004883 10 L 34.16039276123047 2 L 3.839607238769531 2 M 3 0 L 35 0 C 35.55228042602539 0 36 0.4477100372314453 36 1 L 38 11 C 38 11.55228042602539 37.55228042602539 12 37 12 L 1 12 C 0.4477195739746094 12 0 11.55228042602539 0 11 L 2 1 C 2 0.4477100372314453 2.447719573974609 0 3 0 Z" stroke="none" fill="#4c5b77"/>
    </g>
    <g id="Path_396" data-name="Path 396" transform="translate(7671 670)" fill="#fff">
      <path d="M 36.98019790649414 11 L 1.019804000854492 11 L 2.98058009147644 1.196120023727417 L 3 1.099020004272461 L 3 1 L 35 1 L 35 1.099020004272461 L 35.0194206237793 1.196120023727417 L 36.98019790649414 11 Z" stroke="none"/>
      <path d="M 3.839607238769531 2 L 2.239604949951172 10 L 35.76039505004883 10 L 34.16039276123047 2 L 3.839607238769531 2 M 3 0 L 35 0 C 35.55228042602539 0 36 0.4477100372314453 36 1 L 38 11 C 38 11.55228042602539 37.55228042602539 12 37 12 L 1 12 C 0.4477195739746094 12 0 11.55228042602539 0 11 L 2 1 C 2 0.4477100372314453 2.447719573974609 0 3 0 Z" stroke="none" fill="#4c5b77"/>
    </g>
    <line id="Line_1409" data-name="Line 1409" x2="49" transform="translate(7609 712.5)" fill="none" stroke="#4c5b77" stroke-width="2"/>
    <g id="Rectangle_430" data-name="Rectangle 430" transform="translate(7619.5 710)" fill="#fff" stroke="#4c5b77" stroke-width="2">
      <rect width="5" height="6" stroke="none"/>
      <rect x="1" y="1" width="3" height="4" fill="none"/>
    </g>
    <path id="Path_397" data-name="Path 397" d="M7524.015,705.346h75.456v15.68h68.824v-15.68h74.434" fill="none" stroke="#4c5b77" stroke-linejoin="round" stroke-width="2"/>
    <g id="Rectangle_431" data-name="Rectangle 431" transform="translate(7690 798)" fill="#fff" stroke="#4c5b77" stroke-width="2">
      <path d="M12,0H53a0,0,0,0,1,0,0V24a0,0,0,0,1,0,0H12A12,12,0,0,1,0,12v0A12,12,0,0,1,12,0Z" stroke="none"/>
      <path d="M12,1H51.718A.282.282,0,0,1,52,1.282V22.718a.282.282,0,0,1-.282.282H12A11,11,0,0,1,1,12v0A11,11,0,0,1,12,1Z" fill="none"/>
    </g>
    <g id="Rectangle_433" data-name="Rectangle 433" transform="translate(7676 871)" fill="#fff" stroke="#4c5b77" stroke-width="2">
      <rect width="41" height="76" rx="8" stroke="none"/>
      <rect x="1" y="1" width="39" height="74" rx="7" fill="none"/>
    </g>
    <g id="Rectangle_442" data-name="Rectangle 442" transform="translate(7601 650)" stroke="#4c5b77" stroke-linejoin="round" stroke-width="2" fill="url(#linear-gradient-2)">
      <rect width="65" height="19" stroke="none"/>
      <rect x="1" y="1" width="63" height="17" fill="none"/>
    </g>
  </g>
</svg>
