<svg xmlns="http://www.w3.org/2000/svg" width="190.374" height="65.46" viewBox="0 0 190.374 65.46">
  <g id="logo_tut_2019_new_convert-01" data-name="logo_tut_2019 new_convert-01" transform="translate(-44.23 -118.87)">
    <path id="Path_3" data-name="Path 3" d="M63.227,245.06v-5.54h-19v5.54H49.9v29.42h7.7V245.06Z" transform="translate(0 -90.666)" fill="#ed1944"/>
    <path id="Path_4" data-name="Path 4" d="M148.683,295.759V270h-7.371v21.895a5.949,5.949,0,0,1-3.074.664c-2.5,0-3.494-1.625-3.494-3.609V270H127.37v18.39c0,6.608,3.5,9.5,10.686,9.5,4.774,0,8.271-.862,10.634-2.132" transform="translate(-62.478 -113.571)" fill="#ed1944"/>
    <path id="Path_5" data-name="Path 5" d="M241.141,273.207v-4.878a4.224,4.224,0,0,1-1.558.3c-1.655,0-2.363-1.116-2.363-3.2V251.308h3.922v-5.129H237.22V238.3l-7.371,2.033v5.845H227.06v5.132h2.788v14.735c0,4.225,2.314,7.925,7.654,7.925a8.569,8.569,0,0,0,3.638-.76" transform="translate(-137.393 -89.749)" fill="#ed1944"/>
    <path id="Path_6" data-name="Path 6" d="M309.621,273.207v-4.878a4.236,4.236,0,0,1-1.561.3c-1.653,0-2.361-1.116-2.361-3.2V251.308h3.922v-5.129H305.7V238.3l-7.374,2.033v5.845H295.54v5.132h2.786v14.735c0,4.225,2.316,7.925,7.657,7.925a8.577,8.577,0,0,0,3.638-.76" transform="translate(-188.854 -89.749)" fill="#ed1944"/>
    <path id="Path_7" data-name="Path 7" d="M388.111,295.814V276.608c0-4.97-2.883-8.7-10.965-8.7a25.146,25.146,0,0,0-10.686,2.033v25.871h7.374V273.4a8.157,8.157,0,0,1,3.116-.559c2.982,0,3.78,1.881,3.78,3.812v19.156Z" transform="translate(-242.149 -112.001)" fill="#ed1944"/>
    <path id="Path_8" data-name="Path 8" d="M478.313,291.415a5.811,5.811,0,0,1-2.694.559c-2.93,0-4.63-1.372-4.63-4.573,0-4.369,2.883-5.487,7.324-5.945Zm6.9,2.9V277.95c0-7.421-4.252-10.01-10.018-10.01a22.963,22.963,0,0,0-9.593,2.083l1.605,4.523a15.9,15.9,0,0,1,6.618-1.678c2.694,0,4.488.813,4.488,3.658V277.8c-7.654.76-14.223,2.846-14.223,9.909,0,5.691,3.78,8.636,11.151,8.636,4.394,0,7.846-.813,9.971-2.033" transform="translate(-315.516 -112.023)" fill="#ed1944"/>
    <path id="Path_9" data-name="Path 9" d="M581.831,295.759V270h-7.374v21.895a5.934,5.934,0,0,1-3.069.664c-2.505,0-3.5-1.625-3.5-3.609V270H560.52v18.39c0,6.608,3.5,9.5,10.686,9.5,4.774,0,8.273-.862,10.634-2.132" transform="translate(-387.982 -113.571)" fill="#ed1944"/>
    <path id="Path_10" data-name="Path 10" d="M671.423,279.665l-8.882,1.424c-.249-5.639,1.653-8.435,4.677-8.435,2.694,0,4.205,2.135,4.205,7.011m6.852,2.947c.333-9.247-3.4-14.633-10.773-14.633-7.324,0-11.482,5.539-11.482,14.126,0,8.738,4.488,14.277,12.284,14.277a18.627,18.627,0,0,0,9.121-1.988l-1.655-4.926a13.875,13.875,0,0,1-6.616,1.471c-3.728,0-5.622-1.988-6.141-5.994Z" transform="translate(-459.748 -112.053)" fill="#ed1944"/>
    <path id="Path_11" data-name="Path 11" d="M768.929,268.1c-6.852-.355-10.821.457-13.669,1.931v25.863h7.391V273.527a5.953,5.953,0,0,1,4.916.152Z" transform="translate(-534.325 -112.08)" fill="#ed1944"/>
    <path id="Path_12" data-name="Path 12" d="M425.172,137.014l.152-.385a15.1,15.1,0,0,0,1.837.109c8.875,0,18.888-7.207,22.25-16.069.231-.609.524-1.208.683-1.8h.206c-.288.591-.45,1.19-.683,1.8-3.368,8.875,1.2,16.069,10.072,16.069a17.179,17.179,0,0,0,1.919-.109l-.142.385-.149.385a15.608,15.608,0,0,0-1.837-.107c-8.877,0-18.8,7.192-22.168,16.067a18.856,18.856,0,0,0-.582,1.8h-.591q.435-.887.783-1.8c3.367-8.875-1.1-16.067-9.971-16.067a17.878,17.878,0,0,0-1.921.107Z" transform="translate(-286.163 0)" fill="#afb4b7"/>
  </g>
</svg>
