<svg xmlns="http://www.w3.org/2000/svg" width="220.622" height="42.8" viewBox="0 0 220.622 42.8">
  <g id="Group_574" data-name="Group 574" transform="translate(-20 -8)">
    <g id="logo_tut_2019_new_convert-01" data-name="logo_tut_2019 new_convert-01" transform="translate(20 8)">
      <path id="Path_3" data-name="Path 3" d="M55.044,242.673V239.52H44.23v3.153h3.228V259.42h4.384V242.673Z" transform="translate(-44.23 -222.452)" fill="#fff"/>
      <path id="Path_4" data-name="Path 4" d="M139.5,284.663V270h-4.2v12.463a3.386,3.386,0,0,1-1.75.378,1.844,1.844,0,0,1-1.989-2.054V270h-4.2v10.469c0,3.762,1.99,5.41,6.083,5.41a12.9,12.9,0,0,0,6.053-1.214" transform="translate(-115.609 -248.62)" fill="#fff"/>
      <path id="Path_5" data-name="Path 5" d="M235.075,258.17v-2.777a2.4,2.4,0,0,1-.887.173c-.942,0-1.345-.635-1.345-1.821V245.7h2.232v-2.92h-2.232V238.3l-4.2,1.157v3.327H227.06v2.921h1.587v8.388c0,2.4,1.317,4.511,4.357,4.511a4.878,4.878,0,0,0,2.071-.433" transform="translate(-201.196 -221.405)" fill="#fff"/>
      <path id="Path_6" data-name="Path 6" d="M303.555,258.17v-2.777a2.411,2.411,0,0,1-.888.173c-.941,0-1.344-.635-1.344-1.821V245.7h2.232v-2.92h-2.232V238.3l-4.2,1.157v3.327H295.54v2.921h1.586v8.388c0,2.4,1.319,4.511,4.359,4.511a4.882,4.882,0,0,0,2.071-.433" transform="translate(-259.988 -221.405)" fill="#fff"/>
      <path id="Path_7" data-name="Path 7" d="M378.785,283.794V272.861c0-2.829-1.641-4.951-6.242-4.951a14.314,14.314,0,0,0-6.083,1.157v14.727h4.2V271.035a4.642,4.642,0,0,1,1.774-.318,1.934,1.934,0,0,1,2.152,2.17v10.9Z" transform="translate(-320.875 -246.826)" fill="#fff"/>
      <path id="Path_8" data-name="Path 8" d="M472.186,281.3a3.307,3.307,0,0,1-1.534.318,2.315,2.315,0,0,1-2.635-2.6c0-2.487,1.641-3.124,4.169-3.384Zm3.927,1.648v-9.313c0-4.224-2.421-5.7-5.7-5.7a13.071,13.071,0,0,0-5.461,1.185l.914,2.575a9.049,9.049,0,0,1,3.767-.955c1.534,0,2.555.463,2.555,2.082v.724c-4.357.433-8.1,1.62-8.1,5.64,0,3.24,2.152,4.916,6.348,4.916a11.845,11.845,0,0,0,5.676-1.157" transform="translate(-404.694 -246.852)" fill="#fff"/>
      <path id="Path_9" data-name="Path 9" d="M572.651,284.663V270h-4.2v12.463a3.378,3.378,0,0,1-1.747.378,1.844,1.844,0,0,1-1.99-2.054V270h-4.2v10.469c0,3.762,1.99,5.41,6.083,5.41a12.893,12.893,0,0,0,6.053-1.214" transform="translate(-487.482 -248.62)" fill="#fff"/>
      <path id="Path_10" data-name="Path 10" d="M664.788,274.632l-5.056.811c-.141-3.21.941-4.8,2.662-4.8,1.534,0,2.394,1.215,2.394,3.991m3.9,1.678c.19-5.264-1.937-8.329-6.133-8.329-4.169,0-6.536,3.153-6.536,8.041,0,4.974,2.555,8.127,6.993,8.127a10.6,10.6,0,0,0,5.192-1.132l-.942-2.8a7.9,7.9,0,0,1-3.766.837c-2.122,0-3.2-1.132-3.5-3.412Z" transform="translate(-569.472 -246.886)" fill="#fff"/>
      <path id="Path_11" data-name="Path 11" d="M763.041,268.063c-3.9-.2-6.159.26-7.781,1.1v14.722h4.207V271.153a3.389,3.389,0,0,1,2.8.086Z" transform="translate(-654.673 -246.917)" fill="#fff"/>
      <path id="Path_12" data-name="Path 12" d="M425.111,129.2l.086-.219a8.6,8.6,0,0,0,1.045.062c5.052,0,10.751-4.1,12.665-9.147.132-.347.3-.688.389-1.024h.117c-.164.337-.256.678-.389,1.024-1.917,5.052.682,9.147,5.734,9.147a9.782,9.782,0,0,0,1.092-.062l-.081.219-.085.219a8.882,8.882,0,0,0-1.045-.061c-5.053,0-10.7,4.094-12.619,9.146a10.73,10.73,0,0,0-.331,1.024h-.337q.248-.505.446-1.024c1.917-5.052-.624-9.146-5.676-9.146a10.173,10.173,0,0,0-1.094.061Z" transform="translate(-371.16 -118.87)" fill="#fff"/>
    </g>
    <path id="Path_338" data-name="Path 338" d="M11.573-20.119a4.89,4.89,0,0,0-4.225,1.774,8.048,8.048,0,0,0-1.3,4.852,10.6,10.6,0,0,0,.322,2.712,6.19,6.19,0,0,0,.966,2.1,4.425,4.425,0,0,0,1.61,1.363,4.972,4.972,0,0,0,2.254.484q.7,0,1.194-.029a5.2,5.2,0,0,0,.872-.117v-7.065h4.185V-4a14.709,14.709,0,0,1-2.415.689,19.454,19.454,0,0,1-4.1.366,9.857,9.857,0,0,1-3.8-.7A7.9,7.9,0,0,1,4.222-5.7,9.335,9.335,0,0,1,2.357-9.008,14.111,14.111,0,0,1,1.7-13.494a13,13,0,0,1,.724-4.515A9.852,9.852,0,0,1,4.41-21.336,8.321,8.321,0,0,1,7.374-23.4a9.428,9.428,0,0,1,3.635-.7,13.48,13.48,0,0,1,2.374.191,13.9,13.9,0,0,1,1.824.44,8.03,8.03,0,0,1,1.261.513q.5.264.711.41l-1.207,3.665A10.4,10.4,0,0,0,14-19.753,7.725,7.725,0,0,0,11.573-20.119ZM25.926-6.37q.59,0,1.127-.029a7.194,7.194,0,0,0,.858-.088V-9.8a6.8,6.8,0,0,0-.724-.117,7.391,7.391,0,0,0-.885-.059,7.26,7.26,0,0,0-1.06.073,2.6,2.6,0,0,0-.872.279,1.544,1.544,0,0,0-.59.557,1.662,1.662,0,0,0-.215.879,1.545,1.545,0,0,0,.63,1.422A3.24,3.24,0,0,0,25.926-6.37ZM25.6-19.152a8.53,8.53,0,0,1,2.951.44,4.538,4.538,0,0,1,1.891,1.261,4.769,4.769,0,0,1,1.006,1.994,10.7,10.7,0,0,1,.3,2.609V-3.76q-.858.205-2.388.484a21.034,21.034,0,0,1-3.7.279,10.778,10.778,0,0,1-2.482-.264,5.148,5.148,0,0,1-1.918-.865A3.881,3.881,0,0,1,20.024-5.7a5.847,5.847,0,0,1-.429-2.375,4.838,4.838,0,0,1,.5-2.287,4.031,4.031,0,0,1,1.328-1.5,5.709,5.709,0,0,1,1.9-.806,9.814,9.814,0,0,1,2.227-.249,11.579,11.579,0,0,1,1.382.073,5.682,5.682,0,0,1,.979.191v-.41a2.546,2.546,0,0,0-.617-1.788,2.819,2.819,0,0,0-2.146-.674,12.529,12.529,0,0,0-2.012.161,8.033,8.033,0,0,0-1.717.454l-.51-3.518q.349-.117.872-.249t1.14-.235q.617-.1,1.3-.176A12.962,12.962,0,0,1,25.6-19.152Zm9.095-3.43,4-.7v4.544h4.8v3.635H38.7v5.424a4.645,4.645,0,0,0,.443,2.2,1.839,1.839,0,0,0,1.784.821,7.008,7.008,0,0,0,1.328-.132A6.39,6.39,0,0,0,43.5-7.161l.563,3.4a10.689,10.689,0,0,1-1.61.557,8.615,8.615,0,0,1-2.173.235,6.611,6.611,0,0,1-2.71-.484A4.288,4.288,0,0,1,35.852-4.8a5.236,5.236,0,0,1-.9-2.1A13.48,13.48,0,0,1,34.7-9.624ZM45-10.914a10.212,10.212,0,0,1,.577-3.591,7.807,7.807,0,0,1,1.516-2.565,6.29,6.29,0,0,1,2.16-1.554,6.262,6.262,0,0,1,2.508-.528,5.964,5.964,0,0,1,4.749,2.008q1.744,2.008,1.744,5.907,0,.381-.027.836t-.054.806H49.105a2.962,2.962,0,0,0,1.154,2.14A4.346,4.346,0,0,0,53-6.663a10.6,10.6,0,0,0,2.16-.22,7.634,7.634,0,0,0,1.73-.542l.537,3.547a5.238,5.238,0,0,1-.858.352,10.44,10.44,0,0,1-1.194.308q-.657.132-1.408.22a12.909,12.909,0,0,1-1.5.088,8.221,8.221,0,0,1-3.313-.616,6.444,6.444,0,0,1-2.334-1.686,6.847,6.847,0,0,1-1.368-2.536A10.9,10.9,0,0,1,45-10.914Zm9.39-1.671a4.888,4.888,0,0,0-.174-1.085,2.8,2.8,0,0,0-.456-.938,2.478,2.478,0,0,0-.778-.674,2.355,2.355,0,0,0-1.167-.264,2.487,2.487,0,0,0-1.154.249,2.416,2.416,0,0,0-.8.66,3.031,3.031,0,0,0-.5.953,6.73,6.73,0,0,0-.255,1.1Zm15,.41q-.537,2.228-1.14,4.427T66.973-3.321H63.861q-.483-1.231-1.046-2.932T61.647-9.961q-.6-2.008-1.234-4.251t-1.221-4.529H63.4q.215,1.055.469,2.3t.537,2.565q.282,1.319.59,2.653t.63,2.565q.349-1.29.684-2.638t.644-2.653q.309-1.3.59-2.521t.5-2.272h2.9q.215,1.055.483,2.272t.563,2.521q.3,1.3.617,2.653t.671,2.638q.322-1.231.644-2.565t.6-2.653q.282-1.319.537-2.565t.469-2.3h4.158q-.59,2.287-1.221,4.529T77.235-9.961q-.6,2.008-1.18,3.709t-1.06,2.932H71.882q-.671-2.228-1.315-4.427T69.387-12.174Zm17.036,5.8q.59,0,1.127-.029a7.194,7.194,0,0,0,.858-.088V-9.8a6.8,6.8,0,0,0-.724-.117,7.391,7.391,0,0,0-.885-.059,7.26,7.26,0,0,0-1.06.073,2.6,2.6,0,0,0-.872.279,1.544,1.544,0,0,0-.59.557,1.662,1.662,0,0,0-.215.879,1.545,1.545,0,0,0,.63,1.422A3.24,3.24,0,0,0,86.423-6.37ZM86.1-19.152a8.53,8.53,0,0,1,2.951.44,4.538,4.538,0,0,1,1.891,1.261,4.769,4.769,0,0,1,1.006,1.994,10.7,10.7,0,0,1,.3,2.609V-3.76q-.859.205-2.388.484a21.034,21.034,0,0,1-3.7.279,10.778,10.778,0,0,1-2.482-.264,5.148,5.148,0,0,1-1.918-.865A3.881,3.881,0,0,1,80.521-5.7a5.847,5.847,0,0,1-.429-2.375,4.838,4.838,0,0,1,.5-2.287,4.031,4.031,0,0,1,1.328-1.5,5.709,5.709,0,0,1,1.9-.806,9.814,9.814,0,0,1,2.227-.249,11.579,11.579,0,0,1,1.382.073,5.682,5.682,0,0,1,.979.191v-.41a2.546,2.546,0,0,0-.617-1.788,2.819,2.819,0,0,0-2.146-.674,12.529,12.529,0,0,0-2.012.161,8.033,8.033,0,0,0-1.717.454l-.51-3.518q.349-.117.872-.249t1.14-.235q.617-.1,1.3-.176A12.962,12.962,0,0,1,86.1-19.152Zm21.409.41q-1.207,4.456-2.522,8.355t-2.871,7.564A17.66,17.66,0,0,1,100.991-.58,6.739,6.739,0,0,1,99.757.945a4.236,4.236,0,0,1-1.516.879,6.309,6.309,0,0,1-1.972.279,7.388,7.388,0,0,1-1.73-.191,7.2,7.2,0,0,1-1.3-.425L93.935-2a6.361,6.361,0,0,0,1.1.322,5.685,5.685,0,0,0,1.019.088,2.124,2.124,0,0,0,1.65-.63,5.158,5.158,0,0,0,.979-1.744Q97.315-6.9,95.947-10.547t-2.576-8.194h4.239q.268,1.143.63,2.477t.765,2.7q.4,1.363.818,2.653t.791,2.345q.349-1.055.724-2.345t.738-2.653q.362-1.363.7-2.7t.6-2.477Z" transform="translate(132.72 48.397)" fill="#fff" stroke="#939294" stroke-width="0.6"/>
  </g>
</svg>
