<svg xmlns="http://www.w3.org/2000/svg" width="30.521" height="32.217" viewBox="0 0 30.521 32.217">
  <path id="Settings" d="M18.4,32.217H12.121a.8.8,0,0,1-.786-.684l-.589-4.269A11.382,11.382,0,0,1,8.1,25.693L4.194,27.3a.838.838,0,0,1-.272.045.771.771,0,0,1-.689-.408L.093,21.365a.847.847,0,0,1,.2-1.027L3.605,17.68a10.466,10.466,0,0,1-.118-1.571,10.275,10.275,0,0,1,.137-1.571L.309,11.881a.793.793,0,0,1-.2-1.027L3.252,5.275a.779.779,0,0,1,.682-.416.752.752,0,0,1,.279.054L8.119,6.524a11.757,11.757,0,0,1,2.649-1.571L11.356.684A.771.771,0,0,1,12.121,0H18.4a.791.791,0,0,1,.786.684l.589,4.269a11.437,11.437,0,0,1,2.649,1.571l3.9-1.611a.838.838,0,0,1,.272-.045.771.771,0,0,1,.689.408l3.14,5.579a.846.846,0,0,1-.2,1.027l-3.315,2.658a10.29,10.29,0,0,1,.118,1.571,13.479,13.479,0,0,1-.1,1.571l3.277,2.658a.793.793,0,0,1,.2,1.027l-3.139,5.577a.779.779,0,0,1-.682.416.753.753,0,0,1-.279-.054L22.4,25.693a11.647,11.647,0,0,1-2.649,1.571l-.589,4.269A.751.751,0,0,1,18.4,32.217ZM15.26,10.068a6.043,6.043,0,0,0,0,12.082,6.043,6.043,0,0,0,0-12.082Z" transform="translate(0)" fill="#fff"/>
</svg>
