<svg id="eqJznh21xtI1" xmlns="http://www.w3.org/2000/svg" xmlns:xlink="http://www.w3.org/1999/xlink" viewBox="0 0 300 300" shape-rendering="geometricPrecision" text-rendering="geometricPrecision"><defs><linearGradient id="eqJznh21xtI12-fill" x1="85.7588" y1="147.9714" x2="145.7898" y2="37.2513" spreadMethod="pad" gradientUnits="userSpaceOnUse" gradientTransform="translate(0 0)"><stop id="eqJznh21xtI12-fill-0" offset="0%" stop-color="rgba(237,25,68,0)"/><stop id="eqJznh21xtI12-fill-1" offset="100%" stop-color="#ed1944"/></linearGradient><linearGradient id="eqJznh21xtI13-fill" x1="150" y1="92.4622" x2="150" y2="92.4622" spreadMethod="pad" gradientUnits="userSpaceOnUse" gradientTransform="translate(0 0)"><stop id="eqJznh21xtI13-fill-0" offset="0%" stop-color="rgba(237,25,68,0)"/><stop id="eqJznh21xtI13-fill-1" offset="100%" stop-color="#ed1944"/></linearGradient><linearGradient id="eqJznh21xtI21-fill" x1="-7.2582" y1="0.0495" x2="7.2476" y2="0.0495" spreadMethod="pad" gradientUnits="userSpaceOnUse" gradientTransform="translate(0 0)"><stop id="eqJznh21xtI21-fill-0" offset="0%" stop-color="#ed1944"/><stop id="eqJznh21xtI21-fill-1" offset="100%" stop-color="#ed1944"/></linearGradient></defs><g transform="translate(.952748-.187003)"><g><circle r="130.8" transform="translate(149.047252 150)" fill="none" stroke="#5e6367" stroke-width="16.6789"/><line x1="150" y1="282.7" x2="150" y2="18" transform="translate(-.952748 0)" fill="none" stroke="#5e6367" stroke-width="2"/><line x1="17.6" y1="150.4" x2="282.4" y2="150.4" transform="translate(0-.212997)" fill="none" stroke="#5e6367" stroke-width="2"/><circle r="96.7" transform="translate(150 150)" fill="none" stroke="#5e6367" stroke-width="2"/><circle r="34.5" transform="translate(150 150.4)" fill="none" stroke="#5e6367" stroke-width="2"/><circle r="64.5" transform="translate(150 150)" fill="none" stroke="#5e6367" stroke-width="2"/></g><g transform="translate(.340602-.261422)"><g id="eqJznh21xtI11"><path d="M149.9,35.5c-63.1,0-114.2,51-114.5,114h114.5v-114Z" transform="translate(-3.065467 0)" fill="url(#eqJznh21xtI12-fill)"/><line x1="150" y1="149.5" x2="150" y2="35.4" transform="translate(-1.293355 0)" fill="url(#eqJznh21xtI13-fill)" stroke="#ed1944" stroke-width="4"/></g></g><g><circle id="eqJznh21xtI15" r="7.3" transform="translate(96.1 113.8)" fill="#ed1944"/></g><g><circle id="eqJznh21xtI17" r="7.3" transform="translate(175.6 172.6)" opacity="0" fill="#ed1944"/></g><g><circle id="eqJznh21xtI19" r="7.3" transform="translate(223.8 87)" opacity="0" fill="#ed1944"/></g><g><circle id="eqJznh21xtI21" r="7.3" transform="translate(208.2 227.1)" opacity="0" fill="url(#eqJznh21xtI21-fill)"/></g></g>

</svg>
