<svg xmlns="http://www.w3.org/2000/svg" xmlns:xlink="http://www.w3.org/1999/xlink" width="232" height="232" viewBox="0 0 232 232">
  <defs>
    <linearGradient id="linear-gradient" x1="0.5" x2="0.5" y2="1" gradientUnits="objectBoundingBox">
      <stop offset="0" stop-color="#fff"/>
      <stop offset="1" stop-color="#4c5b77" stop-opacity="0.655"/>
    </linearGradient>
  </defs>
  <g id="Tabletop" transform="translate(-7154 -713)">
    <g id="Rectangle_423" data-name="Rectangle 423" transform="translate(7154 713)" fill="#fff" stroke="#4c5b77" stroke-width="2">
      <rect width="232" height="232" rx="23" stroke="none"/>
      <rect x="1" y="1" width="230" height="230" rx="22" fill="none"/>
    </g>
    <g id="Rectangle_422" data-name="Rectangle 422" transform="translate(7168 727)" fill="#fff" stroke="#4c5b77" stroke-width="2">
      <rect width="204" height="204" rx="14" stroke="none"/>
      <rect x="1" y="1" width="202" height="202" rx="13" fill="none"/>
    </g>
    <line id="Line_1407" data-name="Line 1407" x2="204" transform="translate(7168.5 781.5)" fill="none" stroke="#4c5b77" stroke-width="2"/>
    <line id="Line_1408" data-name="Line 1408" y2="54" transform="translate(7270.5 727.5)" fill="none" stroke="#4c5b77" stroke-width="2"/>
    <g id="Rectangle_424" data-name="Rectangle 424" transform="translate(7281 855)" fill="#fff" stroke="#4c5b77" stroke-width="2">
      <rect width="69" height="12" rx="6" stroke="none"/>
      <rect x="1" y="1" width="67" height="10" rx="5" fill="none"/>
    </g>
    <g id="Rectangle_439" data-name="Rectangle 439" transform="translate(7283 741)" fill="#fff" stroke="#4c5b77" stroke-width="2">
      <rect width="76" height="47" rx="5" stroke="none"/>
      <rect x="1" y="1" width="74" height="45" rx="4" fill="none"/>
    </g>
    <g id="Rectangle_425" data-name="Rectangle 425" transform="translate(7168 909)" fill="#fff" stroke="#4c5b77" stroke-width="2">
      <path d="M0,0H45A10,10,0,0,1,55,10V22a0,0,0,0,1,0,0H14A14,14,0,0,1,0,8V0A0,0,0,0,1,0,0Z" stroke="none"/>
      <path d="M2,1H45a9,9,0,0,1,9,9V20a1,1,0,0,1-1,1H14A13,13,0,0,1,1,8V2A1,1,0,0,1,2,1Z" fill="none"/>
    </g>
    <g id="Rectangle_426" data-name="Rectangle 426" transform="translate(7283 741)" stroke="#4c5b77" stroke-width="2" fill="url(#linear-gradient)">
      <rect width="76" height="47" rx="5" stroke="none"/>
      <rect x="1" y="1" width="74" height="45" rx="4" fill="none"/>
    </g>
  </g>
</svg>
