<svg xmlns="http://www.w3.org/2000/svg" width="30" height="30" viewBox="0 0 30 30"><rect width="30" height="30" rx="15" fill="#fff"/><g fill="#fff" stroke="#4d5c76" stroke-width="1"><rect width="30" height="30" rx="15" stroke="none"/><rect x="0.5" y="0.5" width="29" height="29" rx="14.5" fill="none"/></g><line x2="1" transform="translate(15.5 15.5)" fill="none" stroke="#000" stroke-width="1"/><path d="M1.46,2.92A1.435,1.435,0,0,1,0,1.46,1.435,1.435,0,0,1,1.46,0,1.389,1.389,0,0,1,2.48.42,1.412,1.412,0,0,1,2.9,1.46,1.412,1.412,0,0,1,2.48,2.5,1.389,1.389,0,0,1,1.46,2.92Zm4.82,0A1.435,1.435,0,0,1,4.82,1.46,1.435,1.435,0,0,1,6.28,0,1.389,1.389,0,0,1,7.3.42a1.412,1.412,0,0,1,.42,1.04A1.412,1.412,0,0,1,7.3,2.5,1.389,1.389,0,0,1,6.28,2.92Zm4.82,0A1.435,1.435,0,0,1,9.64,1.46,1.435,1.435,0,0,1,11.1,0a1.389,1.389,0,0,1,1.02.42,1.412,1.412,0,0,1,.42,1.04,1.412,1.412,0,0,1-.42,1.04A1.389,1.389,0,0,1,11.1,2.92Z" transform="translate(14 21.54) rotate(-90)" fill="#4c5b77"/></svg>