<svg xmlns="http://www.w3.org/2000/svg" width="40.787" height="32" viewBox="0 0 40.787 32">
  <g id="Group_532" data-name="Group 532" transform="translate(-2548 -326)">
    <path id="Path_16" data-name="Path 16" d="M1490.779,132.191a2,2,0,0,1-1.415-.586,24.037,24.037,0,0,0-33.956,0,2,2,0,0,1-2.83-2.83,28.041,28.041,0,0,1,39.615,0,2,2,0,0,1-1.415,3.416Z" transform="translate(1096.008 205.417)" fill="#fff" opacity="0.2"/>
    <path id="Path_17" data-name="Path 17" d="M1509.057,171.693a1.994,1.994,0,0,1-1.415-.586,16.025,16.025,0,0,0-22.637,0,2,2,0,0,1-2.83-2.83,20.031,20.031,0,0,1,28.3,0,2,2,0,0,1-1.415,3.416Z" transform="translate(1072.069 171.575)" fill="#fff"/>
    <path id="Path_18" data-name="Path 18" d="M1527.336,211.189a2,2,0,0,1-1.415-.586,8.012,8.012,0,0,0-11.318,0,2,2,0,0,1-2.83-2.83,12.019,12.019,0,0,1,16.978,0,2,2,0,0,1-1.415,3.416Z" transform="translate(1048.131 137.737)" fill="#fff"/>
    <path id="Path_19" data-name="Path 19" d="M1541.73,254.1a4,4,0,1,1,2.83-1.17A3.99,3.99,0,0,1,1541.73,254.1Z" transform="translate(1026.664 103.898)" fill="#fff"/>
  </g>
</svg>
