<svg xmlns="http://www.w3.org/2000/svg" width="21.656" height="16.991" viewBox="0 0 21.656 16.991">
  <g id="Group_419" data-name="Group 419" transform="translate(-2548 -326)">
    <path id="Path_16" data-name="Path 16" d="M1472.587,126.747a1.059,1.059,0,0,1-.751-.311,12.763,12.763,0,0,0-18.029,0,1.062,1.062,0,0,1-1.5-1.5,14.889,14.889,0,0,1,21.034,0,1.062,1.062,0,0,1-.751,1.814Z" transform="translate(1096.007 205.417)" fill="#cbd3d8"/>
    <path id="Path_17" data-name="Path 17" d="M1496.174,167.346a1.059,1.059,0,0,1-.751-.311,8.509,8.509,0,0,0-12.02,0,1.062,1.062,0,0,1-1.5-1.5,10.636,10.636,0,0,1,15.024,0,1.062,1.062,0,0,1-.751,1.814Z" transform="translate(1069.415 167.822)" fill="#cbd3d8"/>
    <path id="Path_18" data-name="Path 18" d="M1519.762,207.941a1.059,1.059,0,0,1-.751-.311,4.254,4.254,0,0,0-6.01,0,1.063,1.063,0,0,1-1.5-1.5,6.382,6.382,0,0,1,9.015,0,1.062,1.062,0,0,1-.751,1.814Z" transform="translate(1042.822 130.233)" fill="#cbd3d8"/>
    <path id="Path_19" data-name="Path 19" d="M1539.854,250.349a2.124,2.124,0,1,1,1.5-.621A2.118,2.118,0,0,1,1539.854,250.349Z" transform="translate(1018.974 92.641)" fill="#4c5b77"/>
  </g>
</svg>
